<svg width="125" height="25" viewBox="0 0 125 25" fill="none" xmlns="http://www.w3.org/2000/svg">
<path d="M0 19.5491V1.31318H5.302C7.0854 1.31318 8.60369 1.58573 9.85689 2.13082C11.1101 2.67592 12.1143 3.40271 12.8694 4.3112C13.6406 5.2197 14.2029 6.23555 14.5564 7.35877C14.9099 8.48199 15.0866 9.61348 15.0866 10.7532C15.0866 12.1077 14.8456 13.33 14.3636 14.4202C13.8977 15.4938 13.255 16.4189 12.4356 17.1952C11.6162 17.9551 10.6683 18.5414 9.59179 18.9544C8.51532 19.3508 7.3746 19.5491 6.1696 19.5491H0ZM3.4945 16.0803H5.5671C6.45077 16.0803 7.2541 15.9646 7.9771 15.7334C8.70009 15.4856 9.31867 15.1305 9.83279 14.668C10.363 14.2055 10.7647 13.6274 11.0378 12.9336C11.327 12.2233 11.4716 11.4139 11.4716 10.5055C11.4716 9.31616 11.2788 8.34985 10.8932 7.60654C10.5237 6.84671 10.0577 6.26033 9.49539 5.84737C8.94912 5.43442 8.3868 5.15362 7.8084 5.00496C7.23 4.83977 6.73997 4.75719 6.3383 4.75719H3.4945V16.0803ZM22.2319 19.8464C21.2518 19.8464 20.3601 19.6482 19.5568 19.2517C18.7695 18.8387 18.1429 18.2111 17.677 17.3687C17.211 16.5263 16.9781 15.4526 16.9781 14.1477C16.9781 12.9253 17.2191 11.8682 17.7011 10.9762C18.1831 10.0842 18.8177 9.39874 19.605 8.91972C20.3922 8.42418 21.2277 8.17641 22.1114 8.17641C23.1557 8.17641 23.943 8.35811 24.4732 8.72151C25.0194 9.06839 25.4693 9.45656 25.8228 9.88603L25.6782 10.3072L25.9915 8.72151H29.1245V19.5491H25.7505V17.1952L26.0156 17.9386C25.9834 17.9386 25.887 18.0377 25.7264 18.2359C25.5657 18.4175 25.3247 18.6405 25.0034 18.9049C24.6981 19.1526 24.3125 19.3674 23.8466 19.5491C23.3967 19.7473 22.8585 19.8464 22.2319 19.8464ZM23.1959 17.0218C23.5975 17.0218 23.959 16.964 24.2804 16.8484C24.6017 16.7163 24.8829 16.5345 25.1239 16.3033C25.3649 16.0555 25.5737 15.75 25.7505 15.3865V12.7354C25.6219 12.372 25.4291 12.0664 25.1721 11.8186C24.915 11.5543 24.6097 11.3561 24.2563 11.224C23.9028 11.0753 23.5092 11.001 23.0754 11.001C22.5934 11.001 22.1435 11.1331 21.7258 11.3974C21.3241 11.6452 21.0028 11.9921 20.7618 12.4381C20.5208 12.884 20.4003 13.3961 20.4003 13.9742C20.4003 14.5524 20.5288 15.0726 20.7859 15.5352C21.0429 15.9977 21.3803 16.361 21.7981 16.6254C22.2319 16.8897 22.6978 17.0218 23.1959 17.0218ZM32.3601 8.72151H35.7341V19.5491H32.3601V8.72151ZM32.2878 4.88107C32.2878 4.36901 32.4806 3.9478 32.8662 3.61744C33.2678 3.28709 33.6936 3.1219 34.1435 3.1219C34.5933 3.1219 35.003 3.28709 35.3726 3.61744C35.7582 3.9478 35.951 4.36901 35.951 4.88107C35.951 5.39314 35.7582 5.81434 35.3726 6.1447C35.003 6.45855 34.5933 6.61546 34.1435 6.61546C33.6936 6.61546 33.2678 6.45855 32.8662 6.1447C32.4806 5.81434 32.2878 5.39314 32.2878 4.88107ZM38.9679 0H42.3419V19.5491H38.9679V0ZM46.419 24.7522L53.4321 8.72151H56.4687L49.6725 24.7522H46.419ZM49.2387 19.5986L44.0813 8.72151H47.865L51.8415 17.8642L49.2387 19.5986ZM58.7625 1.31318H62.257V16.0803H70.5956V19.5491H58.7625V1.31318ZM77.8407 19.8464C76.8606 19.8464 75.9689 19.6482 75.1656 19.2517C74.3783 18.8387 73.7517 18.2111 73.2858 17.3687C72.8199 16.5263 72.5869 15.4526 72.5869 14.1477C72.5869 12.9253 72.8279 11.8682 73.3099 10.9762C73.7919 10.0842 74.4265 9.39874 75.2138 8.91972C76.0011 8.42418 76.8365 8.17641 77.7202 8.17641C78.7645 8.17641 79.5518 8.35811 80.082 8.72151C80.6283 9.06839 81.0781 9.45656 81.4316 9.88603L81.287 10.3072L81.6003 8.72151H84.7333V19.5491H81.3593V17.1952L81.6244 17.9386C81.5923 17.9386 81.4959 18.0377 81.3352 18.2359C81.1745 18.4175 80.9335 18.6405 80.6122 18.9049C80.3069 19.1526 79.9213 19.3674 79.4554 19.5491C79.0055 19.7473 78.4673 19.8464 77.8407 19.8464ZM78.8047 17.0218C79.2064 17.0218 79.5679 16.964 79.8892 16.8484C80.2105 16.7163 80.4917 16.5345 80.7327 16.3033C80.9737 16.0555 81.1826 15.75 81.3593 15.3865V12.7354C81.2308 12.372 81.038 12.0664 80.7809 11.8186C80.5238 11.5543 80.2186 11.3561 79.8651 11.224C79.5116 11.0753 79.118 11.001 78.6842 11.001C78.2022 11.001 77.7523 11.1331 77.3346 11.3974C76.9329 11.6452 76.6116 11.9921 76.3706 12.4381C76.1296 12.884 76.0091 13.3961 76.0091 13.9742C76.0091 14.5524 76.1376 15.0726 76.3947 15.5352C76.6518 15.9977 76.9892 16.361 77.4069 16.6254C77.8407 16.8897 78.3066 17.0218 78.8047 17.0218ZM91.0296 8.72151L91.2947 10.6541L91.2465 10.4807C91.6161 9.80344 92.1382 9.25835 92.813 8.84539C93.4878 8.41593 94.3153 8.20119 95.2953 8.20119C96.2915 8.20119 97.1189 8.50677 97.7776 9.11794C98.4524 9.71259 98.7979 10.4889 98.8139 11.447V19.5491H95.4399V12.7354C95.4239 12.2564 95.2953 11.8764 95.0543 11.5956C94.8294 11.2983 94.4438 11.1497 93.8975 11.1497C93.3834 11.1497 92.9335 11.3231 92.5479 11.67C92.1623 12.0168 91.8651 12.4876 91.6562 13.0823C91.4474 13.6769 91.3429 14.3624 91.3429 15.1388V19.5491H87.9689V8.72151H91.0296ZM107.484 25C106.536 25 105.733 24.8843 105.074 24.6531C104.431 24.4219 103.885 24.141 103.435 23.8107C102.985 23.4804 102.584 23.1665 102.23 22.8692L104.206 20.4906C104.576 20.8375 105.002 21.1678 105.484 21.4817C105.982 21.812 106.632 21.9772 107.436 21.9772C107.966 21.9772 108.456 21.8781 108.906 21.6799C109.372 21.4982 109.741 21.2257 110.014 20.8622C110.304 20.4988 110.448 20.0446 110.448 19.4995V17.1209L110.569 17.7403C110.312 18.302 109.846 18.7975 109.171 19.227C108.496 19.64 107.612 19.8464 106.52 19.8464C105.572 19.8464 104.688 19.5986 103.869 19.1031C103.066 18.591 102.423 17.9056 101.941 17.0466C101.459 16.1712 101.218 15.1801 101.218 14.0733C101.218 12.9336 101.475 11.926 101.989 11.0505C102.503 10.1586 103.17 9.45656 103.989 8.9445C104.809 8.43244 105.676 8.17641 106.592 8.17641C107.508 8.17641 108.295 8.31682 108.954 8.59762C109.629 8.86192 110.135 9.19227 110.472 9.5887L110.352 9.9108L110.713 8.72151H113.822V19.5491C113.822 20.6063 113.533 21.5394 112.955 22.3489C112.376 23.1747 111.605 23.8189 110.641 24.2815C109.693 24.7604 108.641 25 107.484 25ZM104.616 13.9742C104.616 14.5524 104.745 15.0726 105.002 15.5352C105.259 15.9977 105.604 16.361 106.038 16.6254C106.488 16.8897 106.986 17.0218 107.532 17.0218C107.998 17.0218 108.408 16.964 108.761 16.8484C109.131 16.7163 109.452 16.5345 109.725 16.3033C110.014 16.0555 110.255 15.75 110.448 15.3865V12.7354C110.304 12.372 110.087 12.0664 109.797 11.8186C109.508 11.5543 109.171 11.3561 108.785 11.224C108.416 11.0753 107.998 11.001 107.532 11.001C106.986 11.001 106.488 11.1331 106.038 11.3974C105.604 11.6452 105.259 11.9921 105.002 12.4381C104.745 12.884 104.616 13.3961 104.616 13.9742ZM120.469 19.7721C119.602 19.7721 118.79 19.6152 118.035 19.3013C117.296 18.9874 116.67 18.5498 116.155 17.9881L117.553 16.0803C118.067 16.5592 118.541 16.9061 118.975 17.1209C119.425 17.3191 119.827 17.4182 120.18 17.4182C120.453 17.4182 120.694 17.3935 120.903 17.3439C121.128 17.2778 121.305 17.187 121.433 17.0714C121.562 16.9393 121.626 16.774 121.626 16.5758C121.626 16.2951 121.514 16.0721 121.289 15.9068C121.08 15.7416 120.807 15.6095 120.469 15.5104C120.132 15.3947 119.77 15.2792 119.385 15.1635C118.421 14.8497 117.722 14.3954 117.288 13.8008C116.87 13.1896 116.661 12.5289 116.661 11.8186C116.661 11.2735 116.798 10.7284 117.071 10.1834C117.36 9.62173 117.81 9.15924 118.421 8.79584C119.047 8.41593 119.851 8.22597 120.831 8.22597C121.714 8.22597 122.462 8.31682 123.072 8.49851C123.683 8.68021 124.261 8.97753 124.807 9.39049L123.53 11.4222C123.225 11.1744 122.879 10.968 122.494 10.8028C122.124 10.6211 121.779 10.522 121.457 10.5055C121.168 10.4889 120.919 10.522 120.71 10.6046C120.517 10.6871 120.365 10.7945 120.252 10.9267C120.14 11.0588 120.084 11.1992 120.084 11.3479C120.068 11.6617 120.18 11.9095 120.421 12.0912C120.678 12.2729 120.999 12.4133 121.385 12.5124C121.771 12.6115 122.148 12.7271 122.518 12.8593C123.032 13.0245 123.474 13.2474 123.843 13.5282C124.213 13.809 124.494 14.1477 124.687 14.5441C124.896 14.924 125 15.3865 125 15.9316C125 16.5924 124.831 17.22 124.494 17.8147C124.173 18.3927 123.675 18.8635 123 19.227C122.341 19.5904 121.498 19.7721 120.469 19.7721Z" fill="white"/>
</svg>
