<svg width="131" height="27" viewBox="0 0 131 27" fill="none" xmlns="http://www.w3.org/2000/svg">
<path d="M0 21.113V1.41824H5.55649C7.42549 1.41824 9.01667 1.71259 10.33 2.30129C11.6434 2.88999 12.6958 3.67492 13.4871 4.6561C14.2953 5.63727 14.8846 6.7344 15.2551 7.94747C15.6256 9.16055 15.8107 10.3826 15.8107 11.6135C15.8107 13.0763 15.5582 14.3964 15.053 15.5738C14.5648 16.7333 13.8912 17.7325 13.0325 18.5709C12.1738 19.3915 11.1803 20.0247 10.0522 20.4708C8.92406 20.8989 7.72858 21.113 6.46574 21.113H0ZM3.66223 17.3667H5.83432C6.7604 17.3667 7.60229 17.2418 8.36 16.9921C9.1177 16.7245 9.76596 16.341 10.3048 15.8414C10.8604 15.3419 11.2814 14.7175 11.5676 13.9683C11.8707 13.2012 12.0222 12.3271 12.0222 11.3459C12.0222 10.0614 11.8202 9.01784 11.4161 8.21507C11.0288 7.39445 10.5405 6.76116 9.95117 6.31517C9.37868 5.86917 8.78936 5.56591 8.1832 5.40535C7.57704 5.22695 7.06349 5.13776 6.64253 5.13776H3.66223V17.3667ZM23.2991 21.4341C22.2719 21.4341 21.3374 21.22 20.4956 20.7919C19.6705 20.3458 19.0138 19.668 18.5255 18.7582C18.0371 17.8484 17.7931 16.6889 17.7931 15.2795C17.7931 13.9594 18.0457 12.8176 18.5508 11.8543C19.0559 10.891 19.721 10.1506 20.5461 9.6333C21.371 9.09812 22.2466 8.83053 23.1728 8.83053C24.2672 8.83053 25.0923 9.02676 25.6479 9.41923C26.2203 9.79386 26.6918 10.2131 27.0623 10.6769L26.9108 11.1318L27.2391 9.41923H30.5225V21.113H26.9866V18.5709L27.2644 19.3736C27.2306 19.3736 27.1296 19.4807 26.9613 19.6947C26.7929 19.8909 26.5403 20.1318 26.2036 20.4172C25.8836 20.6848 25.4795 20.9168 24.9913 21.113C24.5198 21.3271 23.9557 21.4341 23.2991 21.4341ZM24.3093 18.3835C24.7302 18.3835 25.109 18.3212 25.4459 18.1962C25.7826 18.0536 26.0773 17.8572 26.3299 17.6075C26.5825 17.3399 26.8012 17.01 26.9866 16.6174V13.7542C26.8518 13.3617 26.6497 13.0317 26.3804 12.7641C26.1109 12.4787 25.791 12.2646 25.4206 12.1219C25.0502 11.9613 24.6377 11.8811 24.1831 11.8811C23.6779 11.8811 23.2064 12.0238 22.7687 12.3092C22.3477 12.5768 22.011 12.9514 21.7584 13.4331C21.5058 13.9148 21.3796 14.4678 21.3796 15.0922C21.3796 15.7165 21.5142 16.2784 21.7837 16.778C22.053 17.2776 22.4066 17.6699 22.8444 17.9554C23.2991 18.2409 23.7873 18.3835 24.3093 18.3835ZM33.9134 9.41923H37.4493V21.113H33.9134V9.41923ZM33.8376 5.27156C33.8376 4.71853 34.0397 4.26362 34.4438 3.90684C34.8646 3.55006 35.3109 3.37166 35.7824 3.37166C36.2537 3.37166 36.6831 3.55006 37.0705 3.90684C37.4746 4.26362 37.6766 4.71853 37.6766 5.27156C37.6766 5.82459 37.4746 6.27949 37.0705 6.63627C36.6831 6.97523 36.2537 7.1447 35.7824 7.1447C35.3109 7.1447 34.8646 6.97523 34.4438 6.63627C34.0397 6.27949 33.8376 5.82459 33.8376 5.27156ZM40.8383 0H44.3743V21.113H40.8383V0ZM48.6471 26.7324L55.9968 9.41923H59.1792L52.0568 26.7324H48.6471ZM51.6021 21.1665L46.1972 9.41923H50.1625L54.3299 19.2934L51.6021 21.1665ZM61.5831 1.41824H65.2454V17.3667H73.9842V21.113H61.5831V1.41824ZM81.577 21.4341C80.5499 21.4341 79.6154 21.22 78.7735 20.7919C77.9484 20.3458 77.2918 19.668 76.8035 18.7582C76.3153 17.8484 76.0711 16.6889 76.0711 15.2795C76.0711 13.9594 76.3236 12.8176 76.8288 11.8543C77.3339 10.891 77.9989 10.1506 78.8241 9.6333C79.6492 9.09812 80.5246 8.83053 81.4508 8.83053C82.5452 8.83053 83.3703 9.02676 83.9259 9.41923C84.4985 9.79386 84.9698 10.2131 85.3403 10.6769L85.1888 11.1318L85.5171 9.41923H88.8005V21.113H85.2645V18.5709L85.5424 19.3736C85.5087 19.3736 85.4077 19.4807 85.2393 19.6947C85.0708 19.8909 84.8183 20.1318 84.4816 20.4172C84.1616 20.6848 83.7575 20.9168 83.2692 21.113C82.7977 21.3271 82.2337 21.4341 81.577 21.4341ZM82.5873 18.3835C83.0083 18.3835 83.3872 18.3212 83.7239 18.1962C84.0606 18.0536 84.3553 17.8572 84.6079 17.6075C84.8604 17.3399 85.0794 17.01 85.2645 16.6174V13.7542C85.1299 13.3617 84.9278 13.0317 84.6584 12.7641C84.3889 12.4787 84.0691 12.2646 83.6986 12.1219C83.3281 11.9613 82.9157 11.8811 82.461 11.8811C81.9559 11.8811 81.4844 12.0238 81.0467 12.3092C80.6257 12.5768 80.2889 12.9514 80.0364 13.4331C79.7838 13.9148 79.6575 14.4678 79.6575 15.0922C79.6575 15.7165 79.7922 16.2784 80.0616 16.778C80.3311 17.2776 80.6847 17.6699 81.1224 17.9554C81.577 18.2409 82.0653 18.3835 82.5873 18.3835ZM95.399 9.41923L95.6768 11.5064L95.6263 11.3191C96.0137 10.5877 96.5608 9.99902 97.268 9.55302C97.9752 9.0892 98.8424 8.85729 99.8694 8.85729C100.913 8.85729 101.781 9.18731 102.471 9.84737C103.178 10.4896 103.54 11.328 103.557 12.3627V21.113H100.021V13.7542C100.004 13.2369 99.8694 12.8266 99.6169 12.5233C99.3812 12.2022 98.9771 12.0416 98.4045 12.0416C97.8658 12.0416 97.3943 12.2289 96.9902 12.6036C96.5861 12.9782 96.2746 13.4866 96.0557 14.1288C95.8369 14.7711 95.7273 15.5114 95.7273 16.3499V21.113H92.1914V9.41923H95.399ZM112.643 27C111.65 27 110.808 26.8751 110.117 26.6254C109.444 26.3757 108.871 26.0723 108.4 25.7156C107.929 25.3588 107.508 25.0198 107.137 24.6987L109.208 22.1298C109.596 22.5045 110.042 22.8612 110.547 23.2002C111.069 23.5569 111.751 23.7354 112.593 23.7354C113.148 23.7354 113.662 23.6283 114.133 23.4143C114.622 23.2181 115.009 22.9237 115.295 22.5312C115.598 22.1387 115.75 21.6482 115.75 21.0595V18.4906L115.876 19.1596C115.607 19.7662 115.118 20.3013 114.411 20.7651C113.704 21.2112 112.778 21.4341 111.633 21.4341C110.639 21.4341 109.713 21.1665 108.855 20.6313C108.013 20.0782 107.339 19.338 106.834 18.4103C106.329 17.4649 106.076 16.3945 106.076 15.1992C106.076 13.9683 106.346 12.8801 106.885 11.9346C107.423 10.9713 108.122 10.2131 108.981 9.66006C109.84 9.10703 110.749 8.83053 111.709 8.83053C112.668 8.83053 113.493 8.98217 114.184 9.28543C114.891 9.57087 115.421 9.92765 115.775 10.3558L115.649 10.7037L116.027 9.41923H119.286V21.113C119.286 22.2548 118.983 23.2626 118.376 24.1368C117.77 25.0287 116.962 25.7244 115.952 26.224C114.958 26.7413 113.855 27 112.643 27ZM109.637 15.0922C109.637 15.7165 109.772 16.2784 110.042 16.778C110.311 17.2776 110.673 17.6699 111.128 17.9554C111.599 18.2409 112.121 18.3835 112.694 18.3835C113.182 18.3835 113.611 18.3212 113.982 18.1962C114.369 18.0536 114.706 17.8572 114.992 17.6075C115.295 17.3399 115.548 17.01 115.75 16.6174V13.7542C115.598 13.3617 115.371 13.0317 115.068 12.7641C114.765 12.4787 114.411 12.2646 114.007 12.1219C113.62 11.9613 113.182 11.8811 112.694 11.8811C112.121 11.8811 111.599 12.0238 111.128 12.3092C110.673 12.5768 110.311 12.9514 110.042 13.4331C109.772 13.9148 109.637 14.4678 109.637 15.0922ZM126.252 21.3538C125.342 21.3538 124.492 21.1844 123.701 20.8454C122.926 20.5064 122.27 20.0338 121.731 19.4272L123.196 17.3667C123.735 17.884 124.231 18.2586 124.686 18.4906C125.157 18.7047 125.578 18.8117 125.949 18.8117C126.235 18.8117 126.488 18.7849 126.706 18.7314C126.942 18.66 127.127 18.562 127.262 18.4371C127.397 18.2944 127.464 18.116 127.464 17.9019C127.464 17.5987 127.346 17.3578 127.11 17.1794C126.892 17.0009 126.605 16.8583 126.252 16.7512C125.898 16.6263 125.519 16.5015 125.115 16.3766C124.105 16.0377 123.372 15.5471 122.918 14.9049C122.48 14.2448 122.261 13.5312 122.261 12.7641C122.261 12.1754 122.404 11.5867 122.691 10.998C122.994 10.3915 123.465 9.89198 124.105 9.49951C124.762 9.0892 125.604 8.88405 126.631 8.88405C127.557 8.88405 128.34 8.98217 128.979 9.1784C129.619 9.37462 130.226 9.69573 130.798 10.1417L129.459 12.336C129.14 12.0684 128.777 11.8454 128.373 11.667C127.986 11.4708 127.624 11.3637 127.287 11.3459C126.984 11.328 126.723 11.3637 126.504 11.4529C126.302 11.5421 126.142 11.6581 126.024 11.8008C125.907 11.9435 125.848 12.0951 125.848 12.2557C125.831 12.5947 125.949 12.8622 126.201 13.0585C126.471 13.2547 126.807 13.4063 127.211 13.5134C127.616 13.6204 128.011 13.7453 128.399 13.888C128.937 14.0664 129.4 14.3072 129.788 14.6105C130.175 14.9138 130.47 15.2795 130.672 15.7076C130.891 16.1179 131 16.6174 131 17.2061C131 17.9198 130.823 18.5976 130.47 19.2398C130.133 19.8642 129.611 20.3726 128.904 20.7651C128.213 21.1576 127.329 21.3538 126.252 21.3538Z" fill="#C05AFF"/>
</svg>
