<svg width="78" height="80" viewBox="0 0 78 80" fill="none" xmlns="http://www.w3.org/2000/svg">
<path d="M35.4483 3.01178C37.2248 -0.895766 42.7752 -0.895761 44.5517 3.01178L53.9136 23.6041C54.4138 24.7043 55.2957 25.5862 56.3959 26.0864L76.9882 35.4483C80.8958 37.2248 80.8958 42.7752 76.9882 44.5517L56.3959 53.9136C55.2957 54.4138 54.4138 55.2957 53.9136 56.3959L44.5517 76.9882C42.7752 80.8958 37.2248 80.8958 35.4483 76.9882L26.0864 56.3959C25.5862 55.2957 24.7043 54.4138 23.6041 53.9136L3.01178 44.5517C-0.895766 42.7752 -0.895761 37.2248 3.01178 35.4483L23.6041 26.0864C24.7043 25.5862 25.5862 24.7043 26.0864 23.6041L35.4483 3.01178Z" fill="#FFFD50"/>
</svg>
